# This file uses centimeters as units for non-parametric coordinates.

mtllib Egg_02.mtl
g default
v 10.471027 7.607635 1.728427
v 3.999577 12.309414 1.728427
v -3.999569 12.309414 1.728427
v -10.471004 7.607632 1.728427
v -12.942883 -0.000008 1.728427
v -10.471004 -7.607647 1.728427
v -3.999569 -12.309425 1.728427
v 3.999577 -12.309425 1.728427
v 10.471012 -7.607643 1.728427
v 12.942890 -0.000008 1.728427
v 20.043926 14.562756 9.671580
v 7.656101 23.563034 9.671580
v -7.656094 23.563034 9.671580
v -20.043911 14.562750 9.671580
v -24.775646 -0.000008 9.671580
v -20.043911 -14.562763 9.671580
v -7.656094 -23.563042 9.671580
v 7.656101 -23.563042 9.671580
v 20.043919 -14.562763 9.671580
v 24.775639 -0.000008 9.671580
v 28.276295 20.543919 22.132689
v 10.800587 33.240761 22.132689
v -10.800579 33.240757 22.132689
v -28.276272 20.543913 22.132689
v -34.951397 -0.000008 22.132689
v -28.276272 -20.543930 22.132689
v -10.800579 -33.240768 22.132689
v 10.800571 -33.240761 22.132689
v 28.276279 -20.543922 22.132689
v 34.951397 -0.000008 22.132689
v 33.229588 24.142696 38.469937
v 12.692570 39.063705 38.469937
v -12.692562 39.063702 38.469937
v -33.229565 24.142689 38.469937
v -41.074001 -0.000008 38.469937
v -33.229565 -24.142700 38.469937
v -12.692562 -39.063705 38.469937
v 12.692570 -39.063705 38.469937
v 33.229572 -24.142700 38.469937
v 41.074001 -0.000008 38.469937
v 34.004177 24.705469 55.864748
v 12.988438 39.974289 55.864748
v -12.988430 39.974285 55.864748
v -34.004162 24.705462 55.864748
v -42.031445 -0.000008 55.864748
v -34.004162 -24.705475 55.864748
v -12.988430 -39.974289 55.864748
v 12.988438 -39.974289 55.864748
v 34.004154 -24.705475 55.864748
v 42.031445 -0.000008 55.864748
v 0.000004 -0.000008 -1.052873
v 10.507862 -0.000004 55.864748
v 8.501057 6.176369 55.864748
v 3.247120 9.993591 55.864748
v -3.247112 9.993591 55.864748
v -8.501064 6.176369 55.864748
v -10.507870 -0.000004 55.864748
v -8.501064 -6.176369 55.864748
v -3.247112 -9.993591 55.864748
v 3.247105 -9.993591 55.864748
v 8.501057 -6.176369 55.864748
v 0.000004 0.000000 55.864748
v 20.087696 14.594555 55.864748
v 7.672810 23.614489 55.864748
v -7.672817 23.614485 55.864748
v -20.087688 14.594551 55.864748
v -24.829739 -0.000008 55.864748
v -20.087688 -14.594566 55.864748
v -7.672802 -23.614502 55.864748
v 7.672825 -23.614502 55.864748
v 20.087688 -14.594566 55.864748
v 24.829746 -0.000008 55.864748
v 19.104527 13.880245 63.537561
v 7.297276 22.458712 63.537561
v -7.297283 22.458710 63.537561
v -19.104519 13.880241 63.537561
v -23.614483 -0.000008 63.537561
v -19.104519 -13.880260 63.537561
v -7.297268 -22.458725 63.537561
v 7.297291 -22.458725 63.537561
v 19.104527 -13.880257 63.537561
v 23.614491 -0.000008 63.537561
v 16.251286 11.807243 70.459307
v 6.207432 19.104521 70.459307
v -6.207439 19.104519 70.459307
v -16.251278 11.807236 70.459307
v -20.087688 -0.000008 70.459307
v -16.251278 -11.807255 70.459307
v -6.207424 -19.104534 70.459307
v 6.207447 -19.104530 70.459307
v 16.251286 -11.807251 70.459307
v 20.087688 -0.000008 70.459307
v 11.807255 8.578461 75.952435
v 4.509968 13.880245 75.952435
v -4.509960 13.880245 75.952435
v -11.807247 8.578457 75.952435
v -14.594555 -0.000008 75.952435
v -11.807247 -8.578476 75.952435
v -4.509960 -13.880260 75.952435
v 4.509968 -13.880257 75.952435
v 11.807255 -8.578472 75.952435
v 14.594563 -0.000008 75.952435
v 6.207447 4.509960 79.479239
v 2.371037 7.297272 79.479239
v -2.371029 7.297272 79.479239
v -6.207439 4.509960 79.479239
v -7.672817 -0.000008 79.479239
v -6.207439 -4.509975 79.479239
v -2.371029 -7.297287 79.479239
v 2.371037 -7.297287 79.479239
v 6.207447 -4.509975 79.479239
v 7.672825 -0.000008 79.479239
v 0.000004 -0.000008 80.694493
vt 0.050000 0.100000
vt 0.150000 0.100000
vt 0.250000 0.100000
vt 0.350000 0.100000
vt 0.450000 0.100000
vt 0.550000 0.100000
vt 0.650000 0.100000
vt 0.750000 0.100000
vt 0.850000 0.100000
vt 0.950000 0.100000
vt 0.050000 0.200000
vt 0.150000 0.200000
vt 0.250000 0.200000
vt 0.350000 0.200000
vt 0.450000 0.200000
vt 0.550000 0.200000
vt 0.650000 0.200000
vt 0.750000 0.200000
vt 0.850000 0.200000
vt 0.950000 0.200000
vt 0.050000 0.300000
vt 0.150000 0.300000
vt 0.250000 0.300000
vt 0.350000 0.300000
vt 0.450000 0.300000
vt 0.550000 0.300000
vt 0.650000 0.300000
vt 0.750000 0.300000
vt 0.850000 0.300000
vt 0.950000 0.300000
vt 0.050000 0.400000
vt 0.150000 0.400000
vt 0.250000 0.400000
vt 0.350000 0.400000
vt 0.450000 0.400000
vt 0.550000 0.400000
vt 0.650000 0.400000
vt 0.750000 0.400000
vt 0.850000 0.400000
vt 0.950000 0.400000
vt 0.050000 0.500000
vt 0.150000 0.500000
vt 0.250000 0.500000
vt 0.350000 0.500000
vt 0.450000 0.500000
vt 0.550000 0.500000
vt 0.650000 0.500000
vt 0.750000 0.500000
vt 0.850000 0.500000
vt 0.950000 0.500000
vt 0.025000 0.000000
vt 0.125000 0.000000
vt 0.225000 0.000000
vt 0.325000 0.000000
vt 0.425000 0.000000
vt 0.525000 0.000000
vt 0.625000 0.000000
vt 0.725000 0.000000
vt 0.825000 0.000000
vt 0.925000 0.000000
vt 0.000000 0.000000
vt 1.000000 0.000000
vt 0.000000 0.000000
vt 1.000000 0.000000
vt 0.000000 0.000000
vt 1.000000 0.000000
vt 0.000000 0.000000
vt 1.000000 0.000000
vt 0.000000 0.000000
vt 1.000000 0.000000
vt 0.000000 0.000000
vt 1.000000 0.000000
vt 0.000000 0.000000
vt 1.000000 0.000000
vt 0.000000 0.000000
vt 1.000000 0.000000
vt 0.000000 0.000000
vt 1.000000 0.000000
vt 0.000000 0.000000
vt 1.000000 0.000000
vt 0.750000 0.500000
vt 0.250000 0.500000
vt 0.750000 0.500000
vt 0.250000 0.500000
vt 0.750000 0.500000
vt 0.250000 0.500000
vt 0.750000 0.500000
vt 0.250000 0.500000
vt 0.750000 0.500000
vt 0.250000 0.500000
vt 0.750000 0.500000
vt 0.250000 0.500000
vt 0.750000 0.500000
vt 0.250000 0.500000
vt 0.750000 0.500000
vt 0.250000 0.500000
vt 0.750000 0.500000
vt 0.250000 0.500000
vt 0.750000 0.500000
vt 0.250000 0.500000
vt 0.250000 0.500000
vt 0.000000 0.500000
vt 0.100000 0.500000
vt 0.100000 0.600000
vt 0.000000 0.600000
vt 0.200000 0.500000
vt 0.200000 0.600000
vt 0.300000 0.500000
vt 0.300000 0.600000
vt 0.400000 0.500000
vt 0.400000 0.600000
vt 0.500000 0.500000
vt 0.500000 0.600000
vt 0.600000 0.500000
vt 0.600000 0.600000
vt 0.700000 0.500000
vt 0.700000 0.600000
vt 0.800000 0.500000
vt 0.800000 0.600000
vt 0.900000 0.500000
vt 0.900000 0.600000
vt 1.000000 0.500000
vt 1.000000 0.600000
vt 0.100000 0.700000
vt 0.000000 0.700000
vt 0.200000 0.700000
vt 0.300000 0.700000
vt 0.400000 0.700000
vt 0.500000 0.700000
vt 0.600000 0.700000
vt 0.700000 0.700000
vt 0.800000 0.700000
vt 0.900000 0.700000
vt 1.000000 0.700000
vt 0.100000 0.800000
vt 0.000000 0.800000
vt 0.200000 0.800000
vt 0.300000 0.800000
vt 0.400000 0.800000
vt 0.500000 0.800000
vt 0.600000 0.800000
vt 0.700000 0.800000
vt 0.800000 0.800000
vt 0.900000 0.800000
vt 1.000000 0.800000
vt 0.100000 0.900000
vt 0.000000 0.900000
vt 0.200000 0.900000
vt 0.300000 0.900000
vt 0.400000 0.900000
vt 0.500000 0.900000
vt 0.600000 0.900000
vt 0.700000 0.900000
vt 0.800000 0.900000
vt 0.900000 0.900000
vt 1.000000 0.900000
vt 0.050000 1.000000
vt 0.150000 1.000000
vt 0.250000 1.000000
vt 0.350000 1.000000
vt 0.450000 1.000000
vt 0.550000 1.000000
vt 0.650000 1.000000
vt 0.750000 1.000000
vt 0.850000 1.000000
vt 0.950000 1.000000
vn 0.154507 0.475523 -0.866028
vn 0.404504 0.293889 -0.866028
vn -0.000000 0.000000 -1.000000
vn -0.154507 0.475523 -0.866029
vn -0.404504 0.293889 -0.866029
vn -0.499995 0.000000 -0.866028
vn -0.404504 -0.293890 -0.866028
vn -0.154507 -0.475523 -0.866028
vn 0.154507 -0.475523 -0.866028
vn 0.404504 -0.293890 -0.866028
vn 0.499995 -0.000000 -0.866028
vn 0.580302 0.421614 -0.696772
vn 0.221656 0.682186 -0.696772
vn -0.221656 0.682186 -0.696772
vn -0.580302 0.421614 -0.696772
vn -0.717293 -0.000000 -0.696772
vn -0.580302 -0.421614 -0.696771
vn -0.221656 -0.682186 -0.696772
vn 0.221656 -0.682186 -0.696772
vn 0.580302 -0.421614 -0.696772
vn 0.717293 -0.000000 -0.696772
vn 0.717739 0.521467 -0.461436
vn 0.274152 0.843752 -0.461436
vn -0.274152 0.843752 -0.461436
vn -0.717739 0.521467 -0.461436
vn -0.887174 0.000000 -0.461436
vn -0.717739 -0.521468 -0.461436
vn -0.274152 -0.843752 -0.461436
vn 0.274152 -0.843752 -0.461436
vn 0.717738 -0.521467 -0.461436
vn 0.887174 -0.000000 -0.461436
vn 0.793871 0.576781 -0.192594
vn 0.303232 0.933252 -0.192594
vn -0.303232 0.933251 -0.192594
vn -0.793871 0.576781 -0.192594
vn -0.981279 0.000000 -0.192594
vn -0.793871 -0.576781 -0.192594
vn -0.303232 -0.933252 -0.192593
vn 0.303232 -0.933252 -0.192593
vn 0.793871 -0.576781 -0.192594
vn 0.981279 -0.000000 -0.192593
vn 0.807794 0.586897 -0.054959
vn 0.308550 0.949619 -0.054959
vn -0.308550 0.949619 -0.054959
vn -0.807794 0.586897 -0.054959
vn -0.998489 0.000000 -0.054959
vn -0.807794 -0.586897 -0.054959
vn -0.308550 -0.949619 -0.054959
vn 0.308550 -0.949619 -0.054958
vn 0.807794 -0.586897 -0.054959
vn 0.998489 -0.000000 -0.054959
vn 0.000000 0.000000 1.000000
vn 0.000000 0.000000 1.000000
vn 0.000000 0.000000 1.000000
vn 0.000000 0.000000 1.000000
vn -0.000000 0.000000 1.000000
vn -0.000000 0.000000 1.000000
vn -0.000000 0.000000 1.000000
vn -0.000000 0.000000 1.000000
vn 0.000000 0.000000 1.000000
vn 0.000000 0.000000 1.000000
vn 0.000000 0.000000 1.000000
vn 0.000000 0.000000 1.000000
vn -0.000000 0.000000 1.000000
vn -0.000000 0.000000 1.000000
vn -0.000000 0.000000 1.000000
vn -0.000000 0.000000 1.000000
vn 0.000000 0.000000 1.000000
vn 0.000000 0.000000 1.000000
vn 0.000000 0.000000 1.000000
vn 0.000000 0.000000 1.000000
vn 0.000000 0.000000 1.000000
vn 0.000000 0.000000 1.000000
vn 0.000000 0.000000 1.000000
vn 0.000000 0.000000 1.000000
vn -0.000000 0.000000 1.000000
vn -0.000000 0.000000 1.000000
vn -0.000000 0.000000 1.000000
vn -0.000000 0.000000 1.000000
vn 0.000000 0.000000 1.000000
vn 0.000000 0.000000 1.000000
vn 0.000000 0.000000 1.000000
vn 0.000000 0.000000 1.000000
vn 0.000000 0.000000 1.000000
vn 0.000000 0.000000 1.000000
vn 0.000000 0.000000 1.000000
vn 0.000000 0.000000 1.000000
vn 0.000000 0.000000 1.000000
vn 0.000000 0.000000 1.000000
vn 0.000000 0.000000 1.000000
vn 0.000000 0.000000 1.000000
vn 0.000000 0.000000 1.000000
vn 0.000000 0.000000 1.000000
vn 0.000000 0.000000 1.000000
vn -0.000000 0.000000 1.000000
vn -0.000000 0.000000 1.000000
vn -0.000000 0.000000 1.000000
vn 0.000000 0.000000 1.000000
vn 0.000000 0.000000 1.000000
vn 0.000000 0.000000 1.000000
vn 0.000000 0.000000 1.000000
vn 0.000000 0.000000 1.000000
vn 0.000000 0.000000 1.000000
vn 0.000000 0.000000 1.000000
vn 0.000000 0.000000 1.000000
vn 0.000000 0.000000 1.000000
vn 0.000000 0.000000 1.000000
vn 0.000000 0.000000 1.000000
vn 0.000000 0.000000 1.000000
vn -0.000000 0.000000 1.000000
vn -0.000000 0.000000 1.000000
vn -0.000000 0.000000 1.000000
vn -0.000000 0.000000 1.000000
vn -0.000000 0.000000 1.000000
vn -0.000000 0.000000 1.000000
vn 0.000000 0.000000 1.000000
vn 0.000000 0.000000 1.000000
vn 0.000000 0.000000 1.000000
vn 0.000000 0.000000 1.000000
vn 0.000000 0.000000 1.000000
vn 0.000000 0.000000 1.000000
vn 0.799057 0.580548 0.156435
vn 0.305212 0.939347 0.156435
vn 0.295556 0.909628 0.291930
vn 0.773776 0.562181 0.291930
vn -0.305213 0.939347 0.156435
vn -0.295556 0.909628 0.291930
vn -0.799057 0.580548 0.156435
vn -0.773776 0.562181 0.291930
vn -0.987688 -0.000000 0.156435
vn -0.956440 -0.000000 0.291930
vn -0.799057 -0.580548 0.156435
vn -0.773776 -0.562181 0.291930
vn -0.305213 -0.939347 0.156435
vn -0.295556 -0.909628 0.291931
vn 0.305213 -0.939347 0.156435
vn 0.295556 -0.909628 0.291930
vn 0.799057 -0.580549 0.156435
vn 0.773776 -0.562181 0.291930
vn 0.987688 -0.000000 0.156435
vn 0.956440 -0.000000 0.291930
vn 0.256443 0.789250 0.557962
vn 0.671376 0.487783 0.557962
vn -0.256443 0.789250 0.557962
vn -0.671376 0.487783 0.557962
vn -0.829867 0.000000 0.557962
vn -0.671376 -0.487783 0.557962
vn -0.256443 -0.789250 0.557962
vn 0.256443 -0.789250 0.557962
vn 0.671376 -0.487783 0.557962
vn 0.829867 0.000000 0.557962
vn 0.195836 0.602721 0.773548
vn 0.512705 0.372502 0.773548
vn -0.195836 0.602721 0.773548
vn -0.512705 0.372502 0.773548
vn -0.633738 0.000000 0.773548
vn -0.512705 -0.372502 0.773548
vn -0.195836 -0.602721 0.773547
vn 0.195836 -0.602721 0.773548
vn 0.512705 -0.372502 0.773548
vn 0.633738 0.000000 0.773547
vn 0.123740 0.380834 0.916326
vn 0.323956 0.235369 0.916326
vn -0.123740 0.380834 0.916326
vn -0.323956 0.235369 0.916326
vn -0.400432 0.000000 0.916326
vn -0.323956 -0.235369 0.916326
vn -0.123740 -0.380834 0.916326
vn 0.123741 -0.380834 0.916326
vn 0.323957 -0.235369 0.916326
vn 0.400432 0.000000 0.916326
vn -0.000000 0.000000 1.000000
s 1
g pSphere50
usemtl blinn6SG
f 2/2/1 1/1/2 51/52/3
f 3/3/4 2/2/1 51/53/3
f 4/4/5 3/3/4 51/54/3
f 5/5/6 4/4/5 51/55/3
f 6/6/7 5/5/6 51/56/3
f 7/7/8 6/6/7 51/57/3
f 8/8/9 7/7/8 51/58/3
f 9/9/10 8/8/9 51/59/3
f 10/10/11 9/9/10 51/60/3
f 1/1/2 10/10/11 51/51/3
f 11/11/12 1/1/2 2/2/1 12/12/13
f 12/12/13 2/2/1 3/3/4 13/13/14
f 13/13/14 3/3/4 4/4/5 14/14/15
f 14/14/15 4/4/5 5/5/6 15/15/16
f 15/15/16 5/5/6 6/6/7 16/16/17
f 16/16/17 6/6/7 7/7/8 17/17/18
f 17/17/18 7/7/8 8/8/9 18/18/19
f 18/18/19 8/8/9 9/9/10 19/19/20
f 19/19/20 9/9/10 10/10/11 20/20/21
f 20/20/21 10/10/11 1/1/2 11/11/12
f 21/21/22 11/11/12 12/12/13 22/22/23
f 22/22/23 12/12/13 13/13/14 23/23/24
f 23/23/24 13/13/14 14/14/15 24/24/25
f 24/24/25 14/14/15 15/15/16 25/25/26
f 25/25/26 15/15/16 16/16/17 26/26/27
f 26/26/27 16/16/17 17/17/18 27/27/28
f 27/27/28 17/17/18 18/18/19 28/28/29
f 28/28/29 18/18/19 19/19/20 29/29/30
f 29/29/30 19/19/20 20/20/21 30/30/31
f 30/30/31 20/20/21 11/11/12 21/21/22
f 31/31/32 21/21/22 22/22/23 32/32/33
f 32/32/33 22/22/23 23/23/24 33/33/34
f 33/33/34 23/23/24 24/24/25 34/34/35
f 34/34/35 24/24/25 25/25/26 35/35/36
f 35/35/36 25/25/26 26/26/27 36/36/37
f 36/36/37 26/26/27 27/27/28 37/37/38
f 37/37/38 27/27/28 28/28/29 38/38/39
f 38/38/39 28/28/29 29/29/30 39/39/40
f 39/39/40 29/29/30 30/30/31 40/40/41
f 40/40/41 30/30/31 21/21/22 31/31/32
f 41/41/42 31/31/32 32/32/33 42/42/43
f 42/42/43 32/32/33 33/33/34 43/43/44
f 43/43/44 33/33/34 34/34/35 44/44/45
f 44/44/45 34/34/35 35/35/36 45/45/46
f 45/45/46 35/35/36 36/36/37 46/46/47
f 46/46/47 36/36/37 37/37/38 47/47/48
f 47/47/48 37/37/38 38/38/39 48/48/49
f 48/48/49 38/38/39 39/39/40 49/49/50
f 49/49/50 39/39/40 40/40/41 50/50/51
f 50/50/51 40/40/41 31/31/32 41/41/42
s off
f 49/79/52 50/80/53 52/81/54 61/100/55
f 50/61/56 41/62/57 53/83/58 52/82/59
f 41/63/60 42/64/61 54/85/62 53/84/63
f 42/65/64 43/66/65 55/87/66 54/86/67
f 43/67/68 44/68/69 56/89/70 55/88/71
f 44/69/72 45/70/73 57/91/74 56/90/75
f 45/71/76 46/72/77 58/93/78 57/92/79
f 46/73/80 47/74/81 59/95/82 58/94/83
f 47/75/84 48/76/85 60/97/86 59/96/87
f 48/77/88 49/78/89 61/99/90 60/98/91
f 61/100/92 52/82/93 62/101/94
f 52/82/95 53/84/96 62/101/97
f 53/84/98 54/86/99 62/101/100
f 54/86/101 55/88/102 62/101/103
f 55/88/104 56/90/105 62/101/106
f 56/90/107 57/92/108 62/101/109
f 57/92/110 58/94/111 62/101/112
f 58/94/113 59/96/114 62/101/115
f 59/96/116 60/98/117 62/101/118
f 60/98/119 61/100/120 62/101/121
s 2
usemtl blinn2SG
f 63/102/122 64/103/123 74/104/124 73/105/125
f 64/103/123 65/106/126 75/107/127 74/104/124
f 65/106/126 66/108/128 76/109/129 75/107/127
f 66/108/128 67/110/130 77/111/131 76/109/129
f 67/110/130 68/112/132 78/113/133 77/111/131
f 68/112/132 69/114/134 79/115/135 78/113/133
f 69/114/134 70/116/136 80/117/137 79/115/135
f 70/116/136 71/118/138 81/119/139 80/117/137
f 71/118/138 72/120/140 82/121/141 81/119/139
f 72/120/140 63/122/122 73/123/125 82/121/141
f 73/105/125 74/104/124 84/124/142 83/125/143
f 74/104/124 75/107/127 85/126/144 84/124/142
f 75/107/127 76/109/129 86/127/145 85/126/144
f 76/109/129 77/111/131 87/128/146 86/127/145
f 77/111/131 78/113/133 88/129/147 87/128/146
f 78/113/133 79/115/135 89/130/148 88/129/147
f 79/115/135 80/117/137 90/131/149 89/130/148
f 80/117/137 81/119/139 91/132/150 90/131/149
f 81/119/139 82/121/141 92/133/151 91/132/150
f 82/121/141 73/123/125 83/134/143 92/133/151
f 83/125/143 84/124/142 94/135/152 93/136/153
f 84/124/142 85/126/144 95/137/154 94/135/152
f 85/126/144 86/127/145 96/138/155 95/137/154
f 86/127/145 87/128/146 97/139/156 96/138/155
f 87/128/146 88/129/147 98/140/157 97/139/156
f 88/129/147 89/130/148 99/141/158 98/140/157
f 89/130/148 90/131/149 100/142/159 99/141/158
f 90/131/149 91/132/150 101/143/160 100/142/159
f 91/132/150 92/133/151 102/144/161 101/143/160
f 92/133/151 83/134/143 93/145/153 102/144/161
f 93/136/153 94/135/152 104/146/162 103/147/163
f 94/135/152 95/137/154 105/148/164 104/146/162
f 95/137/154 96/138/155 106/149/165 105/148/164
f 96/138/155 97/139/156 107/150/166 106/149/165
f 97/139/156 98/140/157 108/151/167 107/150/166
f 98/140/157 99/141/158 109/152/168 108/151/167
f 99/141/158 100/142/159 110/153/169 109/152/168
f 100/142/159 101/143/160 111/154/170 110/153/169
f 101/143/160 102/144/161 112/155/171 111/154/170
f 102/144/161 93/145/153 103/156/163 112/155/171
f 103/147/163 104/146/162 113/157/172
f 104/146/162 105/148/164 113/158/172
f 105/148/164 106/149/165 113/159/172
f 106/149/165 107/150/166 113/160/172
f 107/150/166 108/151/167 113/161/172
f 108/151/167 109/152/168 113/162/172
f 109/152/168 110/153/169 113/163/172
f 110/153/169 111/154/170 113/164/172
f 111/154/170 112/155/171 113/165/172
f 112/155/171 103/156/163 113/166/172
