# Blender v2.78 (sub 0) OBJ File: '21.blend'
# www.blender.org
mtllib Spoon_01.mtl
o Roundcube
v 0.627446 -0.325575 2.605961
v 0.313723 -0.381771 2.430894
v 0.000000 -0.398747 2.378009
v -0.313723 -0.381771 2.430894
v 0.735746 -0.162788 2.430894
v 0.367873 -0.190885 2.077840
v 0.000000 -0.199373 1.976926
v -0.367873 -0.190885 2.077840
v 0.364318 -0.128199 5.147717
v -0.000000 -0.136605 5.247657
v -0.364318 -0.378755 4.209153
v -0.728637 -0.266522 4.122465
v 0.272499 0.201308 -0.640976
v -0.000000 0.318560 -0.640976
v -0.269866 0.315179 -0.640976
v -0.272499 0.201308 -0.640976
v -0.627446 -0.325575 2.605961
v -0.735746 -0.381771 3.113096
v -0.768462 -0.398747 3.620231
v -0.735746 -0.381771 4.127366
v -0.735746 -0.162788 2.430894
v -0.954152 -0.190885 3.025562
v -1.016580 -0.199373 3.620231
v -0.954152 -0.190885 4.214900
v -0.944932 -0.128199 3.031309
v 0.728637 -0.266522 4.122465
v -0.364318 -0.128199 5.147717
v -0.728637 -0.100372 4.798075
v -0.233828 0.117820 0.913053
v -0.231568 0.231224 0.913053
v -0.000000 0.109332 0.913053
v 0.233828 0.117820 0.913053
v -0.627446 -0.325575 4.634501
v -0.313723 -0.381771 4.809568
v 0.000000 -0.398747 4.862453
v 0.313723 -0.381771 4.809568
v -0.735746 -0.162788 4.809568
v -0.367873 -0.190885 5.162622
v 0.000000 -0.199373 5.263536
v 0.367873 -0.190885 5.162622
v 0.380518 -0.410835 3.620231
v 0.364318 -0.378755 4.209153
v 0.728637 -0.100372 4.798075
v 0.621383 -0.210869 4.624700
v -0.000000 0.222818 0.913053
v 0.231568 0.231224 0.913053
v -0.268220 0.051795 1.674155
v -0.000000 0.067138 1.638685
v 0.627446 -0.325575 4.634501
v 0.735746 -0.381771 4.127366
v 0.768462 -0.398747 3.620231
v 0.735746 -0.381771 3.113096
v 0.735746 -0.162788 4.809568
v 0.954152 -0.190885 4.214900
v 1.016580 -0.199373 3.620231
v 0.954152 -0.190885 3.025562
v 1.006756 -0.136605 3.620231
v 0.761036 -0.283334 3.620231
v -0.728637 -0.100372 2.442387
v -0.364318 -0.128199 2.092744
v -0.270837 -0.061609 1.668865
v -0.000000 -0.070097 1.633049
v 0.268220 0.051795 1.674155
v 0.270837 -0.061609 1.668865
v 0.367873 -0.495099 4.214900
v 0.000000 -0.527492 4.241342
v -0.367873 -0.495099 4.214900
v 0.384231 -0.527492 3.620231
v 0.000000 -0.563913 3.620231
v -0.384231 -0.527492 3.620231
v 0.367873 -0.495099 3.025562
v 0.000000 -0.527492 2.999120
v -0.367873 -0.495099 3.025562
v 0.621383 -0.210869 2.615762
v -0.000000 -0.446904 3.620231
v 0.944932 -0.128199 4.209153
v -0.380518 -0.410835 3.620231
v -0.621383 -0.210869 2.615762
v -0.621383 -0.210869 4.624700
v -0.310692 -0.266522 2.442387
v -0.000000 -0.283334 2.390013
v 0.944932 -0.128199 3.031309
v 0.364318 -0.378755 3.031309
v 0.728637 -0.266522 3.117996
v 0.310692 -0.266522 2.442387
v -0.761036 -0.283334 3.620231
v -0.000000 -0.062138 1.992805
v -0.310692 -0.266522 4.798075
v 0.364318 -0.128199 2.092744
v 0.728637 -0.100372 2.442387
v 0.310692 -0.266522 4.798075
v -0.364318 -0.378755 3.031309
v -0.000000 -0.410835 3.005122
v -0.728637 -0.266522 3.117996
v -0.000000 -0.410835 4.235340
v -0.000000 -0.283334 4.850449
v -0.944932 -0.128199 4.209153
v -1.006756 -0.136605 3.620231
v -0.000000 0.170521 -0.640976
v 0.269866 0.315179 -0.640976
v -0.000000 0.051520 -2.868669
v -0.000000 0.197954 -2.868669
v -0.367873 0.081873 -2.868669
v 0.367873 0.081873 -2.868669
v 0.364318 0.194144 -2.868669
v -0.364318 0.194144 -2.868669
v -0.000000 -0.160628 -4.120436
v -0.000000 -0.014195 -4.120436
v -0.524758 -0.130275 -4.120436
v 0.524758 -0.130275 -4.120436
v 0.519687 -0.018004 -4.120436
v -0.519687 -0.018004 -4.120436
v -0.000000 -0.303231 -4.984287
v -0.000000 -0.156797 -5.003364
v -0.405067 -0.248759 -4.736848
v 0.405067 -0.248759 -4.736848
v 0.401153 -0.136489 -4.755876
v -0.401153 -0.136489 -4.755876
vn 0.4196 -0.8086 -0.4124
vn 0.1341 -0.8840 -0.4478
vn -0.1341 -0.8840 -0.4478
vn -0.4196 -0.8086 -0.4124
vn -0.4852 0.8491 0.2088
vn -0.5152 0.8546 0.0642
vn -0.5152 0.8546 -0.0642
vn -0.4852 0.8491 -0.2088
vn 0.0100 0.9983 0.0576
vn 0.0773 -0.9960 -0.0454
vn -0.9988 0.0273 0.0411
vn 0.9988 0.0273 0.0411
vn 0.6690 0.2076 -0.7136
vn -0.0411 0.9294 0.3669
vn 0.9280 0.1670 0.3330
vn 0.9829 0.1538 -0.1010
vn -0.6175 -0.7489 -0.2404
vn -0.6319 -0.7716 -0.0724
vn -0.6319 -0.7716 0.0724
vn -0.6175 -0.7489 0.2404
vn -0.3510 0.8829 -0.3121
vn -0.1131 0.9309 -0.3472
vn 0.1131 0.9309 -0.3472
vn 0.3510 0.8829 -0.3121
vn -0.0495 -0.9702 -0.2372
vn -0.0021 0.9755 0.2199
vn 0.0021 0.9755 0.2199
vn 0.0495 -0.9702 -0.2372
vn 0.9280 0.1670 -0.3330
vn -0.9829 0.1538 0.1010
vn -0.2519 0.2374 0.9382
vn 0.2519 0.2374 0.9382
vn -0.4196 -0.8086 0.4124
vn -0.1341 -0.8840 0.4478
vn 0.1341 -0.8840 0.4478
vn 0.4196 -0.8086 0.4124
vn 0.4852 0.8491 -0.2088
vn 0.5152 0.8546 -0.0642
vn 0.5152 0.8546 0.0642
vn 0.4852 0.8491 0.2088
vn -0.0773 -0.9960 -0.0454
vn -0.9994 0.0215 0.0259
vn -0.0965 -0.9375 -0.3344
vn 0.0411 0.9294 0.3669
vn 0.6690 0.2076 0.7136
vn 0.9829 0.1538 0.1010
vn -0.9768 0.0579 -0.2063
vn -0.6690 0.2076 0.7136
vn 0.6175 -0.7489 0.2404
vn 0.6319 -0.7716 0.0724
vn 0.6319 -0.7716 -0.0724
vn 0.6175 -0.7489 -0.2404
vn 0.3510 0.8829 0.3121
vn 0.0316 0.9015 0.4317
vn -0.0316 0.9015 0.4317
vn -0.3510 0.8829 0.3121
vn 0.0965 -0.9375 -0.3344
vn 0.9768 0.0579 -0.2063
vn 0.9988 0.0225 -0.0432
vn -0.9988 0.0225 -0.0432
vn -0.9829 0.1538 -0.1010
vn -0.6690 0.2076 -0.7136
vn -0.9280 0.1670 0.3330
vn -0.9280 0.1670 -0.3330
vn 0.3048 -0.9335 0.1886
vn 0.0938 -0.9756 0.1984
vn -0.0938 -0.9756 0.1984
vn -0.3048 -0.9335 0.1886
vn 0.3118 -0.9485 0.0564
vn 0.0930 -0.9940 0.0575
vn -0.0930 -0.9940 0.0575
vn -0.3118 -0.9485 0.0564
vn 0.3118 -0.9485 -0.0564
vn 0.0930 -0.9940 -0.0575
vn -0.0930 -0.9940 -0.0575
vn -0.3118 -0.9485 -0.0564
vn 0.3048 -0.9335 -0.1886
vn 0.0938 -0.9756 -0.1984
vn -0.0938 -0.9756 -0.1984
vn -0.3048 -0.9335 -0.1886
vn 0.3048 0.9335 0.1886
vn 0.0938 0.9756 0.1984
vn -0.0938 0.9756 0.1984
vn -0.3048 0.9335 0.1886
vn 0.3118 0.9485 0.0564
vn 0.0930 0.9940 0.0575
vn -0.0930 0.9940 0.0575
vn -0.3118 0.9485 0.0564
vn 0.3118 0.9485 -0.0564
vn 0.0930 0.9940 -0.0575
vn -0.0930 0.9940 -0.0575
vn -0.3118 0.9485 -0.0564
vn 0.3048 0.9335 -0.1886
vn 0.0938 0.9756 -0.1984
vn -0.0938 0.9756 -0.1984
vn -0.3048 0.9335 -0.1886
vn 0.9994 0.0215 0.0259
vn -0.0100 0.9983 0.0576
vn 0.0085 0.9860 -0.1666
vn -0.0085 0.9860 -0.1666
vn -0.0949 -0.9940 0.0552
vn 0.0949 -0.9940 0.0552
vn -0.0113 0.9985 -0.0539
vn 0.0113 0.9985 -0.0539
vn 0.9813 0.0231 -0.1911
vn 0.0446 -0.9844 0.1700
vn -0.0669 -0.9830 0.1708
vn -0.9924 0.0381 0.1173
vn 0.0669 -0.9830 0.1708
vn 0.9924 0.0381 0.1173
vn -0.5274 -0.1160 -0.8416
vn 0.5274 -0.1160 -0.8416
vn -0.0285 0.9848 -0.1716
vn 0.0285 0.9848 -0.1716
vn -0.0446 -0.9844 0.1700
vn -0.9813 0.0231 -0.1911
usemtl 455A64
s off
f 1//1 2//1 6//1 5//1
f 2//2 3//2 7//2 6//2
f 3//3 4//3 8//3 7//3
f 4//4 17//4 21//4 8//4
f 84//5 82//5 90//5 74//5
f 58//6 57//6 82//6 84//6
f 26//7 76//7 57//7 58//7
f 44//8 43//8 76//8 26//8
f 45//9 14//9 15//9 30//9
f 31//10 99//10 13//10 32//10
f 15//11 106//11 103//11 16//11
f 13//12 104//12 105//12 100//12
f 6//13 89//13 90//13 5//13
f 87//14 48//14 47//14 60//14
f 54//15 76//15 43//15 53//15
f 56//16 82//16 57//16 55//16
f 17//17 18//17 22//17 21//17
f 18//18 19//18 23//18 22//18
f 19//19 20//19 24//19 23//19
f 20//20 33//20 37//20 24//20
f 91//21 9//21 43//21 44//21
f 96//22 10//22 9//22 91//22
f 88//23 27//23 10//23 96//23
f 79//24 28//24 27//24 88//24
f 61//25 29//25 31//25 62//25
f 63//26 46//26 45//26 48//26
f 48//27 45//27 30//27 47//27
f 62//28 31//28 32//28 64//28
f 5//29 90//29 82//29 56//29
f 24//30 97//30 98//30 23//30
f 39//31 10//31 27//31 38//31
f 40//32 9//32 10//32 39//32
f 33//33 34//33 38//33 37//33
f 34//34 35//34 39//34 38//34
f 35//35 36//35 40//35 39//35
f 36//36 49//36 53//36 40//36
f 12//37 97//37 28//37 79//37
f 86//38 98//38 97//38 12//38
f 94//39 25//39 98//39 86//39
f 78//40 59//40 25//40 94//40
f 29//41 16//41 99//41 31//41
f 30//42 15//42 16//42 29//42
f 8//43 61//43 62//43 7//43
f 89//44 63//44 48//44 87//44
f 53//45 43//45 9//45 40//45
f 55//46 57//46 76//46 54//46
f 60//47 47//47 61//47 8//47
f 38//48 27//48 28//48 37//48
f 49//49 50//49 54//49 53//49
f 50//50 51//50 55//50 54//50
f 51//51 52//51 56//51 55//51
f 52//52 1//52 5//52 56//52
f 80//53 60//53 59//53 78//53
f 81//54 87//54 60//54 80//54
f 85//55 89//55 87//55 81//55
f 74//56 90//56 89//56 85//56
f 7//57 62//57 64//57 6//57
f 6//58 64//58 63//58 89//58
f 64//59 32//59 46//59 63//59
f 47//60 30//60 29//60 61//60
f 23//61 98//61 25//61 22//61
f 21//62 59//62 60//62 8//62
f 37//63 28//63 97//63 24//63
f 22//64 25//64 59//64 21//64
f 49//65 36//65 65//65 50//65
f 36//66 35//66 66//66 65//66
f 35//67 34//67 67//67 66//67
f 34//68 33//68 20//68 67//68
f 50//69 65//69 68//69 51//69
f 65//70 66//70 69//70 68//70
f 66//71 67//71 70//71 69//71
f 67//72 20//72 19//72 70//72
f 51//73 68//73 71//73 52//73
f 68//74 69//74 72//74 71//74
f 69//75 70//75 73//75 72//75
f 70//76 19//76 18//76 73//76
f 52//77 71//77 2//77 1//77
f 71//78 72//78 3//78 2//78
f 72//79 73//79 4//79 3//79
f 73//80 18//80 17//80 4//80
f 92//81 80//81 78//81 94//81
f 93//82 81//82 80//82 92//82
f 83//83 85//83 81//83 93//83
f 84//84 74//84 85//84 83//84
f 77//85 92//85 94//85 86//85
f 75//86 93//86 92//86 77//86
f 41//87 83//87 93//87 75//87
f 58//88 84//88 83//88 41//88
f 11//89 77//89 86//89 12//89
f 95//90 75//90 77//90 11//90
f 42//91 41//91 75//91 95//91
f 26//92 58//92 41//92 42//92
f 88//93 11//93 12//93 79//93
f 96//94 95//94 11//94 88//94
f 91//95 42//95 95//95 96//95
f 44//96 26//96 42//96 91//96
f 32//97 13//97 100//97 46//97
f 46//98 100//98 14//98 45//98
f 105//99 111//99 108//99 102//99
f 102//100 108//100 112//100 106//100
f 16//101 103//101 101//101 99//101
f 99//102 101//102 104//102 13//102
f 14//103 102//103 106//103 15//103
f 100//104 105//104 102//104 14//104
f 110//105 116//105 117//105 111//105
f 107//106 113//106 116//106 110//106
f 103//107 109//107 107//107 101//107
f 106//108 112//108 109//108 103//108
f 101//109 107//109 110//109 104//109
f 104//110 110//110 111//110 105//110
f 115//111 118//111 114//111 113//111
f 113//112 114//112 117//112 116//112
f 108//113 114//113 118//113 112//113
f 111//114 117//114 114//114 108//114
f 109//115 115//115 113//115 107//115
f 112//116 118//116 115//116 109//116
