# Blender v2.78 (sub 0) OBJ File: 'CHAHIN_TOMATO_SLICE.blend'
# www.blender.org
mtllib CHAHIN_TOMATO_SLICE.mtl
o Cylinder
v 0.479173 0.153914 -0.509352
v 0.479173 0.255091 -0.509352
v 0.839624 0.153914 -0.360048
v 0.839624 0.255091 -0.360048
v 0.988928 0.153914 0.000403
v 0.988928 0.255091 0.000403
v 0.839624 0.153914 0.360854
v 0.839624 0.255091 0.360854
v 0.479173 0.153914 0.510158
v 0.479173 0.255091 0.510158
v 0.118721 0.153914 0.360854
v 0.118721 0.255091 0.360854
v -0.030582 0.153914 0.000403
v -0.030582 0.255091 0.000403
v 0.118721 0.153914 -0.360048
v 0.118721 0.255091 -0.360048
v 0.479173 0.255091 0.000403
v 0.479173 0.153914 0.000403
v 0.519190 0.153914 -0.377654
v 0.718203 0.153914 -0.295220
v 0.519190 0.153914 -0.096208
v 0.718203 0.255091 -0.295220
v 0.519190 0.255091 -0.377654
v 0.519190 0.255091 -0.096208
v 0.439156 0.255091 -0.377654
v 0.240142 0.255091 -0.295220
v 0.439156 0.255091 -0.096208
v 0.183550 0.255091 -0.238627
v 0.101116 0.255091 -0.039614
v 0.382562 0.255091 -0.039614
v 0.101116 0.255091 0.040420
v 0.183550 0.255091 0.239433
v 0.382562 0.255091 0.040420
v 0.240142 0.255091 0.296026
v 0.439156 0.255091 0.378460
v 0.439156 0.255091 0.097014
v 0.519190 0.255091 0.378460
v 0.718202 0.255091 0.296026
v 0.519190 0.255091 0.097014
v 0.774796 0.255091 0.239433
v 0.857229 0.255091 0.040420
v 0.575783 0.255091 0.040420
v 0.857229 0.255091 -0.039614
v 0.774796 0.255091 -0.238627
v 0.575783 0.255091 -0.039614
v 0.774796 0.153914 -0.238627
v 0.857229 0.153914 -0.039614
v 0.575783 0.153914 -0.039614
v 0.857229 0.153914 0.040420
v 0.774796 0.153914 0.239433
v 0.575783 0.153914 0.040420
v 0.718203 0.153914 0.296026
v 0.519190 0.153914 0.378460
v 0.519190 0.153914 0.097014
v 0.439156 0.153914 0.378460
v 0.240142 0.153914 0.296026
v 0.439156 0.153914 0.097014
v 0.183550 0.153914 0.239433
v 0.101116 0.153914 0.040420
v 0.382562 0.153914 0.040420
v 0.101116 0.153914 -0.039614
v 0.183550 0.153914 -0.238627
v 0.382562 0.153914 -0.039614
v 0.240142 0.153914 -0.295220
v 0.439156 0.153914 -0.377654
v 0.439156 0.153914 -0.096208
v 0.426732 0.153392 0.196114
v 0.426732 0.255614 0.196114
v 0.283461 0.153392 -0.052038
v 0.283461 0.255614 -0.052038
v 0.674884 0.153392 0.052844
v 0.674884 0.255614 0.052844
v 0.531614 0.153392 -0.195309
v 0.531614 0.255614 -0.195309
v 0.306810 0.153392 0.099917
v 0.306810 0.255614 0.099917
v 0.651536 0.153392 -0.099111
v 0.651536 0.255614 -0.099111
v 0.379659 0.153392 -0.171960
v 0.379659 0.255614 -0.171960
v 0.578687 0.153392 0.172766
v 0.578687 0.255614 0.172766
v 0.479173 0.255614 0.000403
v 0.479173 0.153392 0.000403
vt 0.1878 0.9274
vt 0.1878 0.7430
vt 0.3031 0.7430
vt 0.3031 0.9274
vt 0.6969 0.7430
vt 0.6969 0.9274
vt 0.6153 0.9274
vt 0.6153 0.7430
vt 0.5000 0.9274
vt 0.5000 0.7430
vt 0.3031 0.9274
vt 0.3031 0.7430
vt 0.3847 0.7430
vt 0.3847 0.9274
vt 0.5000 0.7430
vt 0.5000 0.9274
vt 0.8937 0.7430
vt 0.8937 0.9274
vt 0.8122 0.9274
vt 0.8122 0.7430
vt 0.2146 0.3470
vt 0.0719 0.3304
vt 0.2146 0.2903
vt 0.6969 0.9274
vt 0.6969 0.7430
vt 0.1063 0.9274
vt 0.1063 0.7430
vt 0.2146 0.2502
vt 0.3573 0.2336
vt 0.3573 0.2903
vt 0.3573 0.3470
vt 0.2146 0.3304
vt 0.3573 0.2903
vt 0.2264 0.3994
vt 0.0719 0.3994
vt 0.1491 0.3470
vt 0.9281 0.3470
vt 0.7854 0.3304
vt 0.9281 0.2903
vt 0.5000 0.2502
vt 0.6427 0.2336
vt 0.6427 0.2903
vt 0.7854 0.2502
vt 0.9281 0.2336
vt 0.9281 0.2903
vt 0.6039 0.1755
vt 0.7466 0.1589
vt 0.7466 0.2156
vt 0.6427 0.3070
vt 0.7854 0.2903
vt 0.7854 0.3470
vt 0.7466 0.1755
vt 0.8893 0.1589
vt 0.8893 0.2156
vt 0.6427 0.2502
vt 0.7854 0.2336
vt 0.7854 0.2903
vt 0.0719 0.2502
vt 0.2146 0.2336
vt 0.2146 0.2903
vt 0.3573 0.3070
vt 0.5000 0.2903
vt 0.5000 0.3470
vt 0.5000 0.3070
vt 0.6427 0.2903
vt 0.6427 0.3470
vt 0.7971 0.3994
vt 0.6427 0.3994
vt 0.7199 0.3470
vt 0.3573 0.2502
vt 0.5000 0.2336
vt 0.5000 0.2903
vt 0.6631 0.6931
vt 0.5815 0.7430
vt 0.5776 0.7182
vt 0.6226 0.6907
vt 0.5239 0.6578
vt 0.5457 0.6712
vt 0.3031 0.5726
vt 0.3847 0.6225
vt 0.3442 0.6250
vt 0.2992 0.5974
vt 0.2455 0.6578
vt 0.2673 0.6444
vt 0.3847 0.6931
vt 0.3532 0.6773
vt 0.3532 0.6383
vt 0.2764 0.6578
vt 0.3031 0.7430
vt 0.2992 0.7182
vt 0.3442 0.6907
vt 0.2673 0.6712
vt 0.1878 0.7430
vt 0.2136 0.7237
vt 0.2773 0.7237
vt 0.2455 0.6767
vt 0.1063 0.6931
vt 0.1467 0.6907
vt 0.1918 0.7182
vt 0.2236 0.6712
vt 0.1063 0.6225
vt 0.1377 0.6383
vt 0.1377 0.6773
vt 0.2146 0.6578
vt 0.1878 0.5726
vt 0.1918 0.5974
vt 0.1467 0.6250
vt 0.2236 0.6444
vt 0.2773 0.5919
vt 0.2136 0.5919
vt 0.2455 0.6389
vt 0.4662 0.7430
vt 0.4920 0.7237
vt 0.5557 0.7237
vt 0.5239 0.6767
vt 0.3847 0.6931
vt 0.4252 0.6907
vt 0.4702 0.7182
vt 0.5020 0.6712
vt 0.3847 0.6225
vt 0.4161 0.6383
vt 0.4161 0.6773
vt 0.4930 0.6578
vt 0.4662 0.5726
vt 0.4702 0.5974
vt 0.4252 0.6250
vt 0.5020 0.6444
vt 0.5815 0.5726
vt 0.5557 0.5919
vt 0.4920 0.5919
vt 0.5239 0.6389
vt 0.6631 0.6225
vt 0.6226 0.6250
vt 0.5776 0.5974
vt 0.5457 0.6444
vt 0.6317 0.6773
vt 0.6317 0.6383
vt 0.5548 0.6578
vt 0.4709 0.1963
vt 0.3379 0.2108
vt 0.3379 0.1798
vt 0.4191 0.1589
vt 0.2049 0.1963
vt 0.3379 0.2108
vt 0.2634 0.2336
vt 0.1531 0.2336
vt 0.2567 0.1589
vt 0.3379 0.1798
vt 0.5226 0.2336
vt 0.4124 0.2336
vt 0.6039 0.2127
vt 0.6039 0.1817
vt 0.1464 0.1589
vt 0.0719 0.1817
vt 0.0719 0.2127
vt 0.5294 0.1589
vn 0.3827 0.0000 -0.9239
vn 0.9239 0.0000 -0.3827
vn 0.9239 0.0000 0.3827
vn 0.3827 0.0000 0.9239
vn -0.3827 0.0000 0.9239
vn -0.9239 0.0000 0.3827
vn 0.0000 -1.0000 0.0000
vn -0.9239 0.0000 -0.3827
vn -0.3827 0.0000 -0.9239
vn 0.0000 1.0000 0.0000
usemtl Material.009
s off
f 1/1/1 2/2/1 4/3/1 3/4/1
f 3/5/2 4/6/2 6/7/2 5/8/2
f 5/8/3 6/7/3 8/9/3 7/10/3
f 7/11/4 8/12/4 10/13/4 9/14/4
f 9/14/5 10/13/5 12/15/5 11/16/5
f 11/17/6 12/18/6 14/19/6 13/20/6
f 19/21/7 20/22/7 21/23/7
f 13/20/8 14/19/8 16/24/8 15/25/8
f 15/26/9 16/27/9 2/2/9 1/1/9
f 22/28/10 23/29/10 24/30/10
f 25/31/10 26/32/10 27/33/10
f 28/34/10 29/35/10 30/36/10
f 31/37/10 32/38/10 33/39/10
f 34/40/10 35/41/10 36/42/10
f 37/43/10 38/44/10 39/45/10
f 40/46/10 41/47/10 42/48/10
f 43/49/10 44/50/10 45/51/10
f 46/52/7 47/53/7 48/54/7
f 49/55/7 50/56/7 51/57/7
f 52/58/7 53/59/7 54/60/7
f 55/61/7 56/62/7 57/63/7
f 58/64/7 59/65/7 60/66/7
f 61/67/7 62/68/7 63/69/7
f 64/70/7 65/71/7 66/72/7
f 1/73/7 3/74/7 20/75/7 19/76/7
f 3/74/7 18/77/7 21/78/7 20/75/7
f 18/77/7 1/73/7 19/76/7 21/78/7
f 4/79/10 2/80/10 23/81/10 22/82/10
f 2/80/10 17/83/10 24/84/10 23/81/10
f 17/83/10 4/79/10 22/82/10 24/84/10
f 2/80/10 16/85/10 26/86/10 25/87/10
f 16/85/10 17/83/10 27/88/10 26/86/10
f 17/83/10 2/80/10 25/87/10 27/88/10
f 16/85/10 14/89/10 29/90/10 28/91/10
f 14/89/10 17/83/10 30/92/10 29/90/10
f 17/83/10 16/85/10 28/91/10 30/92/10
f 14/89/10 12/93/10 32/94/10 31/95/10
f 12/93/10 17/83/10 33/96/10 32/94/10
f 17/83/10 14/89/10 31/95/10 33/96/10
f 12/93/10 10/97/10 35/98/10 34/99/10
f 10/97/10 17/83/10 36/100/10 35/98/10
f 17/83/10 12/93/10 34/99/10 36/100/10
f 10/97/10 8/101/10 38/102/10 37/103/10
f 8/101/10 17/83/10 39/104/10 38/102/10
f 17/83/10 10/97/10 37/103/10 39/104/10
f 8/101/10 6/105/10 41/106/10 40/107/10
f 6/105/10 17/83/10 42/108/10 41/106/10
f 17/83/10 8/101/10 40/107/10 42/108/10
f 6/105/10 4/79/10 44/109/10 43/110/10
f 4/79/10 17/83/10 45/111/10 44/109/10
f 17/83/10 6/105/10 43/110/10 45/111/10
f 3/74/7 5/112/7 47/113/7 46/114/7
f 5/112/7 18/77/7 48/115/7 47/113/7
f 18/77/7 3/74/7 46/114/7 48/115/7
f 5/112/7 7/116/7 50/117/7 49/118/7
f 7/116/7 18/77/7 51/119/7 50/117/7
f 18/77/7 5/112/7 49/118/7 51/119/7
f 7/116/7 9/120/7 53/121/7 52/122/7
f 9/120/7 18/77/7 54/123/7 53/121/7
f 18/77/7 7/116/7 52/122/7 54/123/7
f 9/120/7 11/124/7 56/125/7 55/126/7
f 11/124/7 18/77/7 57/127/7 56/125/7
f 18/77/7 9/120/7 55/126/7 57/127/7
f 11/124/7 13/128/7 59/129/7 58/130/7
f 13/128/7 18/77/7 60/131/7 59/129/7
f 18/77/7 11/124/7 58/130/7 60/131/7
f 13/128/7 15/132/7 62/133/7 61/134/7
f 15/132/7 18/77/7 63/135/7 62/133/7
f 18/77/7 13/128/7 61/134/7 63/135/7
f 15/132/7 1/73/7 65/136/7 64/137/7
f 1/73/7 18/77/7 66/138/7 65/136/7
f 18/77/7 15/132/7 64/137/7 66/138/7
f 84/139/7 77/140/7 71/141/7 81/142/7
f 83/143/10 76/144/10 68/145/10 82/146/10
f 80/147/10 70/148/10 76/144/10 83/143/10
f 79/149/7 73/150/7 77/140/7 84/139/7
f 69/151/7 79/149/7 84/139/7 75/152/7
f 74/153/10 80/147/10 83/143/10 78/154/10
f 78/154/10 83/143/10 82/146/10 72/155/10
f 75/152/7 84/139/7 81/142/7 67/156/7
